<svg xmlns="http://www.w3.org/2000/svg" xmlns:xlink="http://www.w3.org/1999/xlink" width="500" zoomAndPan="magnify" viewBox="0 0 375 374.999991" height="500" preserveAspectRatio="xMidYMid meet" version="1.0"><defs><g/><clipPath id="659816031e"><path d="M 132.273438 101.703125 L 242.523438 101.703125 L 242.523438 211.953125 L 132.273438 211.953125 Z M 132.273438 101.703125 " clip-rule="nonzero"/></clipPath></defs><path fill="#36ab9c" d="M 230.191406 165.078125 L 219.421875 165.078125 L 196.605469 125.695312 L 207.449219 125.695312 L 230.191406 165.078125 " fill-opacity="1" fill-rule="nonzero"/><path fill="#2c8375" d="M 188.660156 139.457031 L 196.605469 125.695312 L 202 135.003906 L 194.042969 148.78125 L 188.660156 139.457031 " fill-opacity="1" fill-rule="nonzero"/><path fill="#f68712" d="M 163.972656 125.695312 L 180.632812 154.449219 L 199.980469 187.960938 L 210.828125 187.960938 L 194.167969 159.207031 L 174.820312 125.695312 L 163.972656 125.695312 " fill-opacity="1" fill-rule="nonzero"/><path fill="#36ab9c" d="M 144.609375 148.578125 L 155.378906 148.578125 L 178.195312 187.960938 L 167.347656 187.960938 L 144.609375 148.578125 " fill-opacity="1" fill-rule="nonzero"/><path fill="#2c8375" d="M 186.140625 174.195312 L 178.195312 187.960938 L 172.800781 178.652344 L 180.757812 164.871094 L 186.140625 174.195312 " fill-opacity="1" fill-rule="nonzero"/><path fill="#e76f19" d="M 205.433594 178.652344 L 210.828125 187.960938 L 218.773438 174.195312 L 208.003906 174.195312 L 205.433594 178.652344 " fill-opacity="1" fill-rule="nonzero"/><path fill="#e76f19" d="M 169.367188 135.003906 L 163.972656 125.695312 L 156.027344 139.457031 L 166.796875 139.457031 L 169.367188 135.003906 " fill-opacity="1" fill-rule="nonzero"/><g clip-path="url(#659816031e)"><path fill="#4f4c4c" d="M 187.402344 203.011719 C 161.894531 203.011719 141.214844 182.335938 141.214844 156.828125 C 141.214844 131.320312 161.894531 110.640625 187.402344 110.640625 C 212.90625 110.640625 233.585938 131.320312 233.585938 156.828125 C 233.585938 182.335938 212.90625 203.011719 187.402344 203.011719 Z M 187.402344 101.703125 C 156.957031 101.703125 132.277344 126.382812 132.277344 156.828125 C 132.277344 187.269531 156.957031 211.953125 187.402344 211.953125 C 217.84375 211.953125 242.527344 187.269531 242.527344 156.828125 C 242.527344 126.382812 217.84375 101.703125 187.402344 101.703125 " fill-opacity="1" fill-rule="nonzero"/></g><g fill="#000000" fill-opacity="1"><g transform="translate(126.223429, 252.639943)"><g><path d="M 1.765625 -17.625 L 9.34375 -17.625 C 12.101562 -17.625 14.351562 -16.804688 16.09375 -15.171875 C 17.832031 -13.546875 18.703125 -11.425781 18.703125 -8.8125 C 18.703125 -6.207031 17.820312 -4.085938 16.0625 -2.453125 C 14.300781 -0.816406 12 0 9.15625 0 L 1.765625 0 Z M 6.25 -14.046875 L 6.25 -3.578125 L 9.4375 -3.578125 C 10.8125 -3.578125 11.9375 -4.054688 12.8125 -5.015625 C 13.695312 -5.984375 14.140625 -7.238281 14.140625 -8.78125 C 14.140625 -10.320312 13.675781 -11.582031 12.75 -12.5625 C 11.832031 -13.550781 10.660156 -14.046875 9.234375 -14.046875 Z M 6.25 -14.046875 "/></g></g></g><g fill="#000000" fill-opacity="1"><g transform="translate(149.155798, 252.639943)"><g><path d="M 10.125 -17.765625 C 12.851562 -17.765625 15.125 -16.910156 16.9375 -15.203125 C 18.75 -13.503906 19.65625 -11.378906 19.65625 -8.828125 C 19.65625 -6.265625 18.742188 -4.117188 16.921875 -2.390625 C 15.109375 -0.660156 12.84375 0.203125 10.125 0.203125 C 7.40625 0.203125 5.140625 -0.65625 3.328125 -2.375 C 1.515625 -4.09375 0.609375 -6.242188 0.609375 -8.828125 C 0.609375 -11.398438 1.515625 -13.53125 3.328125 -15.21875 C 5.140625 -16.914062 7.40625 -17.765625 10.125 -17.765625 Z M 10.171875 -14.015625 C 8.796875 -14.015625 7.617188 -13.515625 6.640625 -12.515625 C 5.671875 -11.523438 5.1875 -10.289062 5.1875 -8.8125 C 5.1875 -7.332031 5.675781 -6.082031 6.65625 -5.0625 C 7.632812 -4.050781 8.800781 -3.546875 10.15625 -3.546875 C 11.519531 -3.546875 12.675781 -4.050781 13.625 -5.0625 C 14.570312 -6.082031 15.046875 -7.332031 15.046875 -8.8125 C 15.046875 -10.289062 14.570312 -11.523438 13.625 -12.515625 C 12.675781 -13.515625 11.523438 -14.015625 10.171875 -14.015625 Z M 10.171875 -14.015625 "/></g></g></g><g fill="#000000" fill-opacity="1"><g transform="translate(173.044699, 252.639943)"><g><path d="M 12.390625 0 L 9.765625 -4.953125 L 6.25 -4.953125 L 6.25 0 L 1.765625 0 L 1.765625 -17.625 L 9.640625 -17.625 C 11.972656 -17.625 13.773438 -17.085938 15.046875 -16.015625 C 16.328125 -14.953125 16.96875 -13.441406 16.96875 -11.484375 C 16.96875 -8.765625 15.898438 -6.875 13.765625 -5.8125 L 17.46875 0 Z M 6.25 -8.484375 L 9.640625 -8.484375 C 10.609375 -8.484375 11.363281 -8.722656 11.90625 -9.203125 C 12.445312 -9.691406 12.71875 -10.398438 12.71875 -11.328125 C 12.71875 -12.234375 12.445312 -12.921875 11.90625 -13.390625 C 11.363281 -13.859375 10.609375 -14.09375 9.640625 -14.09375 L 6.25 -14.09375 Z M 6.25 -8.484375 "/></g></g></g><g fill="#000000" fill-opacity="1"><g transform="translate(194.894688, 252.639943)"><g><path d="M 6.25 0 L 1.765625 0 L 1.765625 -17.625 L 6.25 -17.625 Z M 6.25 0 "/></g></g></g><g fill="#000000" fill-opacity="1"><g transform="translate(206.524917, 252.639943)"><g><path d="M 18.015625 0 L 14.078125 0 L 5.96875 -10.84375 L 5.96875 0 L 1.765625 0 L 1.765625 -17.625 L 5.71875 -17.625 L 13.84375 -6.75 L 13.84375 -17.625 L 18.015625 -17.625 Z M 18.015625 0 "/></g></g></g><g fill="#000000" fill-opacity="1"><g transform="translate(229.935561, 252.639943)"><g><path d="M 15.5625 -14.09375 L 6.25 -14.09375 L 6.25 -10.59375 L 14.65625 -10.59375 L 14.65625 -7.078125 L 6.25 -7.078125 L 6.25 -3.53125 L 15.828125 -3.53125 L 15.828125 0 L 1.765625 0 L 1.765625 -17.625 L 15.5625 -17.625 Z M 15.5625 -14.09375 "/></g></g></g><g fill="#000000" fill-opacity="1"><g transform="translate(250.524202, 252.639943)"><g/></g></g><g fill="#000000" fill-opacity="1"><g transform="translate(151.814972, 270.58132)"><g><path d="M 2.140625 0 L 0.9375 0 L 0.9375 -7.125 L 2.140625 -7.125 Z M 2.140625 0 "/></g></g></g><g fill="#000000" fill-opacity="1"><g transform="translate(155.365231, 270.58132)"><g><path d="M 7.109375 0 L 5.9375 0 L 2.140625 -5.109375 L 2.140625 0 L 0.9375 0 L 0.9375 -7.125 L 2.109375 -7.125 L 5.9375 -2 L 5.9375 -7.125 L 7.109375 -7.125 Z M 7.109375 0 "/></g></g></g><g fill="#000000" fill-opacity="1"><g transform="translate(163.899689, 270.58132)"><g><path d="M 4.109375 0 L 2.875 0 L 0.03125 -7.125 L 1.328125 -7.125 L 3.515625 -1.328125 L 5.734375 -7.125 L 6.984375 -7.125 Z M 4.109375 0 "/></g></g></g><g fill="#000000" fill-opacity="1"><g transform="translate(171.396614, 270.58132)"><g><path d="M 6.015625 -6.046875 L 2.140625 -6.046875 L 2.140625 -4.125 L 5.609375 -4.125 L 5.609375 -3.046875 L 2.140625 -3.046875 L 2.140625 -1.078125 L 6.140625 -1.078125 L 6.140625 0 L 0.9375 0 L 0.9375 -7.125 L 6.015625 -7.125 Z M 6.015625 -6.046875 "/></g></g></g><g fill="#000000" fill-opacity="1"><g transform="translate(178.547699, 270.58132)"><g><path d="M 3.28125 -7.171875 C 4.195312 -7.171875 5.023438 -6.925781 5.765625 -6.4375 L 5.265625 -5.375 C 4.546875 -5.820312 3.851562 -6.046875 3.1875 -6.046875 C 2.820312 -6.046875 2.535156 -5.976562 2.328125 -5.84375 C 2.128906 -5.71875 2.03125 -5.535156 2.03125 -5.296875 C 2.03125 -5.054688 2.125 -4.851562 2.3125 -4.6875 C 2.5 -4.519531 2.734375 -4.398438 3.015625 -4.328125 C 3.304688 -4.253906 3.613281 -4.15625 3.9375 -4.03125 C 4.269531 -3.914062 4.578125 -3.789062 4.859375 -3.65625 C 5.148438 -3.519531 5.390625 -3.3125 5.578125 -3.03125 C 5.765625 -2.75 5.859375 -2.410156 5.859375 -2.015625 C 5.859375 -1.390625 5.609375 -0.890625 5.109375 -0.515625 C 4.609375 -0.140625 3.960938 0.046875 3.171875 0.046875 C 2.628906 0.046875 2.101562 -0.0507812 1.59375 -0.25 C 1.082031 -0.457031 0.640625 -0.738281 0.265625 -1.09375 L 0.78125 -2.125 C 1.144531 -1.789062 1.539062 -1.535156 1.96875 -1.359375 C 2.394531 -1.179688 2.800781 -1.09375 3.1875 -1.09375 C 3.613281 -1.09375 3.941406 -1.164062 4.171875 -1.3125 C 4.410156 -1.46875 4.53125 -1.679688 4.53125 -1.953125 C 4.53125 -2.191406 4.429688 -2.394531 4.234375 -2.5625 C 4.046875 -2.726562 3.8125 -2.847656 3.53125 -2.921875 C 3.25 -3.003906 2.941406 -3.101562 2.609375 -3.21875 C 2.273438 -3.332031 1.960938 -3.453125 1.671875 -3.578125 C 1.390625 -3.703125 1.15625 -3.898438 0.96875 -4.171875 C 0.78125 -4.453125 0.6875 -4.789062 0.6875 -5.1875 C 0.6875 -5.789062 0.921875 -6.269531 1.390625 -6.625 C 1.867188 -6.988281 2.5 -7.171875 3.28125 -7.171875 Z M 3.28125 -7.171875 "/></g></g></g><g fill="#000000" fill-opacity="1"><g transform="translate(185.352945, 270.58132)"><g><path d="M 5.796875 -6.046875 L 3.546875 -6.046875 L 3.546875 0 L 2.34375 0 L 2.34375 -6.046875 L 0.09375 -6.046875 L 0.09375 -7.125 L 5.796875 -7.125 Z M 5.796875 -6.046875 "/></g></g></g><g fill="#000000" fill-opacity="1"><g transform="translate(191.720798, 270.58132)"><g><path d="M 8.46875 0 L 7.359375 0 L 7.34375 -5.3125 L 5.09375 -0.75 L 4.3125 -0.75 L 2.0625 -5.3125 L 2.0625 0 L 0.9375 0 L 0.9375 -7.125 L 2.359375 -7.125 L 4.703125 -2.390625 L 7.046875 -7.125 L 8.46875 -7.125 Z M 8.46875 0 "/></g></g></g><g fill="#000000" fill-opacity="1"><g transform="translate(201.608109, 270.58132)"><g><path d="M 6.015625 -6.046875 L 2.140625 -6.046875 L 2.140625 -4.125 L 5.609375 -4.125 L 5.609375 -3.046875 L 2.140625 -3.046875 L 2.140625 -1.078125 L 6.140625 -1.078125 L 6.140625 0 L 0.9375 0 L 0.9375 -7.125 L 6.015625 -7.125 Z M 6.015625 -6.046875 "/></g></g></g><g fill="#000000" fill-opacity="1"><g transform="translate(208.759195, 270.58132)"><g><path d="M 7.109375 0 L 5.9375 0 L 2.140625 -5.109375 L 2.140625 0 L 0.9375 0 L 0.9375 -7.125 L 2.109375 -7.125 L 5.9375 -2 L 5.9375 -7.125 L 7.109375 -7.125 Z M 7.109375 0 "/></g></g></g><g fill="#000000" fill-opacity="1"><g transform="translate(217.293655, 270.58132)"><g><path d="M 5.796875 -6.046875 L 3.546875 -6.046875 L 3.546875 0 L 2.34375 0 L 2.34375 -6.046875 L 0.09375 -6.046875 L 0.09375 -7.125 L 5.796875 -7.125 Z M 5.796875 -6.046875 "/></g></g></g></svg>
